<?xml version="1.0" encoding="utf-8"?>
<!-- Generator: Adobe Illustrator 27.9.0, SVG Export Plug-In . SVG Version: 6.00 Build 0)  -->
<svg version="1.1" id="Layer_1" xmlns="http://www.w3.org/2000/svg" xmlns:xlink="http://www.w3.org/1999/xlink" x="0px" y="0px"
	 viewBox="0 0 612 236.24" style="enable-background:new 0 0 612 236.24;" xml:space="preserve">
<style type="text/css">
	.st0{fill:#B8D6E7;}
</style>
<path class="st0" d="M285.27,175.21c-0.85,2.32-1.51,4.73-2.61,6.92c-1.69,3.38-5.15,4.62-8.34,3.28c-3.19-1.33-3.85-3.7-2.46-7.87
	c0.86-2.56,1.44-5.22,2.14-7.84c0.2,0.04,0.4,0.09,0.59,0.13c-0.07-0.08-0.17-0.22-0.19-0.21c-0.12,0.06-0.22,0.16-0.33,0.25
	c-6.58,3.54-13.01,7.43-19.8,10.51c-5.57,2.52-11.49,4.37-17.41,5.96c-4.9,1.32-9.95,0.78-14.69-1.23
	c-3.34-1.42-4.79-4.58-3.71-7.67c1.21-3.47,4.15-4.79,8-3.58c3.87,1.22,4.72,0.66,4.96-3.27c0.04-0.66,0.02-1.33-0.04-2
	c-0.65-6.74-1.31-13.48-2-20.61c-1.33-0.12-2.95-0.32-4.58-0.39c-45.46-1.77-90.92-1.83-136.38-0.04
	c-8.15,0.32-16.3,0.65-24.43,1.27c-7.37,0.56-14.43,2.45-20.83,6.34c-0.71,0.43-1.43,0.88-2.2,1.18c-3.02,1.15-6.59-0.21-8.12-3.06
	c-1.35-2.52-0.8-4.51,2.22-6.8c8.4-6.36,18.15-8.96,28.44-9.63c37.92-2.47,75.9-2.74,113.88-2.28c18.32,0.22,36.63,0.8,54.95,1.34
	c2.84,0.08,5.02-0.55,7.19-2.49c3.42-3.06,7.48-5,12.28-4.65c5.36,0.38,9.13,5.12,8.29,10.38c-0.85,5.31-5.69,7.75-10.44,5.23
	c-0.85-0.45-1.62-1.05-2.48-1.62c-4.57,3.37-5.86,7.91-5.33,12.91c0.56,5.28,1.65,10.5,2.63,16.52c9.81-3.47,17.7-9.93,26.54-14.52
	C275.76,163.53,280.52,169.37,285.27,175.21z"/>
<path class="st0" d="M296.17,167.63c7.91,4.24,15.88,1.37,23.74-0.04c15.55-2.79,30.28-8.11,43.6-16.6
	c10.51-6.7,21.93-9.44,34.06-9.97c43.1-1.89,86.22-2.79,129.37-1.47c11.65,0.36,23.3,0.72,34.95,1.1c1.33,0.04,2.7,0.07,3.96,0.41
	c2.64,0.72,4.39,3.34,4.17,6.09c-0.23,2.82-1.7,4.66-4.55,5.15c-1.14,0.2-2.32,0.24-3.47,0.19c-46.45-1.99-92.9-2.15-139.36-0.54
	c-10.97,0.38-21.95,1.07-32.89,1.97c-6.88,0.57-13.19,3.07-19.12,6.73c-17.99,11.1-37.6,17.61-58.56,20.04
	c-2.63,0.3-5.31,0.1-7.97,0.13c-1.49-2.3-3.03-4.57-4.45-6.92C298.41,171.86,297.32,169.73,296.17,167.63z"/>
<path class="st0" d="M291.94,129.88c4.29-10.45,8.44-20.97,12.9-31.35c11.36-26.46,22.86-52.85,34.3-79.27
	c0.4-0.92,0.76-1.85,1.22-2.74c1.74-3.41,3.81-4.48,6.73-3.52c2.9,0.95,4.7,3.89,4.2,7.1c-0.18,1.13-0.62,2.24-1.08,3.3
	C335.49,57.65,320.75,91.89,306,126.13c-0.26,0.6-0.66,1.15-1,1.72C300.53,127.76,296.07,127.75,291.94,129.88z"/>
<path class="st0" d="M291.94,129.88c4.13-2.13,8.58-2.12,13.05-2.04c-0.98,2.77-1.96,5.53-3.2,9c1.7-0.46,2.72-0.73,3.74-1.02
	c2.07-0.58,4.11-1.41,6.23-1.69c9.17-1.24,15.68,7.45,12.07,15.99c-1.33,3.14-5.49,4.03-8.4,1.5c-1.44-1.25-2.33-3.12-3.72-5.05
	c-4.64,0.33-7.8,3.96-11.5,6.57c-4.02-4.75-8.04-9.51-12.07-14.26C289.41,135.89,290.68,132.88,291.94,129.88z"/>
<path class="st0" d="M296.17,167.63c1.15,2.1,2.24,4.23,3.48,6.28c1.41,2.35,2.96,4.61,4.45,6.92c-6.22,0.53-11.84-0.83-16.61-5.11
	c-0.49-0.44-1.47-0.35-2.22-0.51c-4.75-5.84-9.51-11.68-14.26-17.52c3.34-2.33,6.68-4.65,10.02-6.98c4.3,5.2,8.59,10.4,12.92,15.56
	c0.28,0.33,0.91,0.35,1.38,0.52C295.61,167.07,295.89,167.35,296.17,167.63z"/>
<path class="st0" d="M295.33,166.79c-0.47-0.17-1.1-0.19-1.38-0.52c-4.34-5.17-8.62-10.37-12.92-15.56c2.4-1.61,3.62-3.94,4.48-6.65
	c0.58-1.82,1.74-3.45,2.64-5.17c4.02,4.75,8.04,9.51,12.07,14.26C296.25,156.86,294.78,161.46,295.33,166.79z"/>
</svg>
